HIERARCHY
ROOT hip
{
	OFFSET 0.000000 0.000000 0.000000 
	CHANNELS 6 Xposition Yposition Zposition Xrotation Zrotation Yrotation
	JOINT abdomen
	{
		OFFSET 0.000000 3.402643 0.000000 
		CHANNELS 3 Xrotation Zrotation Yrotation
		JOINT chest
		{
			OFFSET 0.000000 8.438565 -0.680529 
			CHANNELS 3 Xrotation Zrotation Yrotation
			JOINT neck
			{
				OFFSET 0.000000 10.207942 -0.272212 
				CHANNELS 3 Xrotation Zrotation Yrotation
				JOINT head
				{
					OFFSET 0.000000 3.130431 0.000000 
					CHANNELS 3 Xrotation Zrotation Yrotation
					End Site
					{
						OFFSET 0.000000 3.130435 0.000000 
					}
				}
			}
			JOINT lCollar
			{
				OFFSET 3.470700 6.669187 -0.816635 
				CHANNELS 3 Yrotation Zrotation Xrotation
				JOINT lShldr
				{
					OFFSET 3.198488 0.000000 0.000000 
					CHANNELS 3 Zrotation Yrotation Xrotation
					JOINT lForeArm
					{
						OFFSET 10.139888 0.000000 0.000000 
						CHANNELS 3 Yrotation Zrotation Xrotation
						JOINT lHand
						{
							OFFSET 8.370511 0.000000 0.000000 
							CHANNELS 3 Zrotation Yrotation Xrotation
							End Site
							{
								OFFSET 4.083176 0.000000 0.000000 
							}
						}
					}
				}
			}
			JOINT rCollar
			{
				OFFSET -3.470700 6.669187 -0.816635 
				CHANNELS 3 Yrotation Zrotation Xrotation
				JOINT rShldr
				{
					OFFSET -3.198488 0.000000 0.000000 
					CHANNELS 3 Zrotation Yrotation Xrotation
					JOINT rForeArm
					{
						OFFSET -10.139888 0.000000 0.000000 
						CHANNELS 3 Yrotation Zrotation Xrotation
						JOINT rHand
						{
							OFFSET -8.370511 0.000000 0.000000 
							CHANNELS 3 Zrotation Yrotation Xrotation
							End Site
							{
								OFFSET -4.083176 0.000000 0.000000 
							}
						}
					}
				}
			}
		}
	}
	JOINT lThigh
	{
		OFFSET 5.308129 -1.633274 1.361059 
		CHANNELS 3 Xrotation Zrotation Yrotation
		JOINT lShin
		{
			OFFSET -2.041588 -20.007561 0.000000 
			CHANNELS 3 Xrotation Zrotation Yrotation
			JOINT lFoot
			{
				OFFSET 0.000000 -19.190928 -1.224953 
				CHANNELS 3 Xrotation Yrotation Zrotation
				End Site
				{
					OFFSET 0.000000 -2.449906 4.627600 
				}
			}
		}
	}
	JOINT rThigh
	{
		OFFSET -5.308129 -1.633274 1.361059 
		CHANNELS 3 Xrotation Zrotation Yrotation
		JOINT rShin
		{
			OFFSET 2.041588 -20.007561 0.000000 
			CHANNELS 3 Xrotation Zrotation Yrotation
			JOINT rFoot
			{
				OFFSET 0.000000 -19.190928 -1.224953 
				CHANNELS 3 Xrotation Yrotation Zrotation
				End Site
				{
					OFFSET 0.000000 -2.449906 4.627600 
				}
			}
		}
	}
}
MOTION
Frames: 13
Frame Time: 0.033333
-0.045092 43.465893 -40.344189 3.308239 10.578444 92.668953 25.919165 -3.649273 -0.258735 -20.839844 0.000000 0.000000 -5.557473 5.714140 0.895681 8.584577 -3.811294 0.287245 -4.754609 -0.109183 -0.002653 -41.998898 11.201317 -11.119987 -7.046711 -14.665678 17.595503 8.304124 -0.487591 3.046932 4.754609 0.109183 -0.002672 62.336514 -17.135853 -20.200651 24.021580 -0.556049 13.316711 -0.747588 -1.995000 21.188496 20.982471 14.325053 12.474428 -4.736271 -3.950349 2.876125 0.654134 -1.507774 -18.974550 8.471034 -17.540972 -12.569153 14.974322 2.269125 -0.681943 -12.143568 0.034131 11.611272 
0.028333 43.487759 -40.361786 3.279486 10.676250 93.088989 25.868828 -3.589275 -0.279791 -20.839844 0.000000 0.000000 -5.374533 5.933861 0.586210 8.584577 -3.811294 0.287245 -4.754609 -0.109183 -0.002653 -46.429459 10.918981 -10.124155 -7.460341 -14.476373 17.698393 7.626706 -0.653630 2.588056 4.754609 0.109183 -0.002672 66.164474 -17.454008 -19.477497 24.047407 -0.298932 13.976500 -0.137023 -1.743744 21.234926 21.451736 14.354761 12.492650 -5.573980 -3.822375 2.743489 1.137185 -1.649918 -19.258423 9.129049 -17.439684 -12.612993 14.307465 2.417464 -0.968185 -11.754228 -0.223016 11.771317 
0.091340 43.524731 -40.403500 3.370006 10.772793 93.708443 25.792133 -3.633667 -0.328980 -20.839844 0.000000 0.000000 -5.021426 5.842058 0.174820 8.584577 -3.811294 0.287245 -4.754609 -0.109183 -0.002653 -50.589634 10.582707 -8.993290 -7.804120 -14.528111 17.663132 7.135958 -0.800472 1.591915 4.754609 0.109183 -0.002672 69.819954 -17.682432 -18.716988 23.101656 0.040010 14.795211 -0.308645 -0.596310 21.402502 21.440441 14.422574 12.530500 -5.530208 -3.874291 2.431448 1.287087 -2.058365 -19.526934 10.066116 -17.488283 -12.885839 13.224121 2.700498 -1.356344 -10.976642 -0.469508 11.902177 
0.123632 43.559101 -40.461872 3.619569 10.857722 94.452881 25.783039 -3.995932 -0.362503 -20.839844 0.000000 0.000000 -4.635741 5.801208 -0.484169 8.584577 -3.811294 0.287245 -4.754609 -0.109183 -0.002653 -54.736752 10.100493 -7.732800 -8.213568 -14.305151 17.470144 6.431779 -0.712881 0.302712 4.754609 0.109183 -0.002672 73.509361 -17.645107 -17.883314 21.685024 0.347584 15.052458 -0.701391 0.443219 20.774054 21.348843 14.362393 12.559241 -5.520858 -3.991713 2.164901 1.592488 -2.686033 -19.671505 10.837052 -17.672983 -13.357369 12.539618 2.826924 -1.738291 -10.459818 -0.609343 12.398962 
0.123632 43.580975 -40.528210 3.957624 10.853582 95.337570 25.798616 -4.487471 -0.384122 -20.839844 0.000000 0.000000 -4.463062 5.844733 -1.431814 8.584577 -3.811294 0.287245 -4.754609 -0.109183 -0.002653 -58.776928 9.371425 -6.305922 -8.465098 -14.127189 17.186054 5.359032 -0.331947 -1.289097 4.754609 0.109183 -0.002672 77.248596 -17.467472 -17.068474 20.550077 0.551222 14.572362 -0.631829 0.926321 19.300169 21.088631 14.177975 12.572828 -5.546223 -4.018385 2.002028 1.952607 -3.510256 -19.804810 11.372523 -17.867123 -13.901258 12.143126 2.740148 -2.190580 -10.070233 -0.678195 13.106635 
0.096551 43.587734 -40.608719 4.253695 10.693802 96.445786 25.792229 -4.862103 -0.413298 -20.839844 0.000000 0.000000 -4.481775 5.718515 -2.517993 8.584577 -3.811294 0.287245 -4.754609 -0.109183 -0.002653 -62.696938 8.103475 -4.707485 -8.009095 -14.144285 16.813068 4.017309 0.117027 -2.998041 4.754609 0.109183 -0.002672 80.879509 -17.284824 -16.332310 19.691948 0.672269 13.908085 -0.071578 0.903194 17.774378 19.582001 14.313002 12.652218 -3.428111 -4.115661 1.431590 1.180193 -4.471082 -19.921068 11.829750 -17.923731 -14.285228 11.633212 2.602618 -2.799594 -9.641398 -0.999629 13.465332 
0.048642 43.566914 -40.723907 4.319280 10.410452 97.648399 25.787680 -5.053195 -0.266825 -20.839844 0.000000 0.000000 -4.563869 5.420963 -3.750809 8.584577 -3.811294 0.287245 -4.754609 -0.109183 -0.002653 -66.807823 6.235497 -2.766474 -6.681306 -13.787347 16.593273 2.372562 0.253116 -4.521526 4.754609 0.109183 -0.002672 84.218948 -16.811779 -15.548005 18.499308 0.724956 13.501523 0.801619 0.510731 16.852514 16.686480 14.900894 12.877403 1.206785 -4.243559 0.337198 -1.144678 -5.533926 -19.807802 12.005062 -17.649876 -13.982889 11.296421 2.311315 -3.390479 -9.490410 -2.119589 13.480700 
0.001256 43.487240 -40.894447 4.136116 10.071896 98.889412 25.818785 -4.979968 0.143729 -20.839844 0.000000 0.000000 -4.581208 5.039593 -5.130117 8.584577 -3.811294 0.287245 -4.754609 -0.109183 -0.002653 -71.198906 4.026835 -0.077085 -5.034233 -13.044514 17.103771 0.632266 0.310878 -5.839917 4.754609 0.109183 -0.002672 87.078690 -15.870804 -14.687653 16.646719 0.667102 13.457489 1.915394 -0.067931 16.885109 13.629540 15.584215 13.019992 5.994752 -4.056557 -0.854392 -3.886277 -6.407673 -19.438595 11.767141 -17.158363 -13.042476 11.577733 1.909405 -3.846471 -9.885531 -3.898059 13.420791 
-0.022181 43.332058 -41.130081 3.865104 9.802308 100.346855 26.017159 -4.608599 0.457473 -20.839844 0.000000 0.000000 -4.456668 4.626032 -6.511326 8.584577 -3.811294 0.287245 -4.754609 -0.109183 -0.002653 -75.730064 1.736020 3.252474 -3.504276 -11.916327 18.488470 -0.754076 0.523837 -6.611587 4.754609 0.109183 -0.002672 89.347961 -15.178350 -13.991789 15.659503 0.648102 13.980281 3.714362 -1.131553 17.761486 10.584972 16.210482 12.349265 10.704244 -3.709056 -2.393219 -6.748245 -6.324615 -18.842424 11.384170 -16.648218 -11.822459 12.512950 1.451367 -4.109786 -10.625431 -6.035754 13.518329 
-0.038848 43.173229 -41.397064 3.564812 9.522894 101.822533 26.220350 -4.162808 0.357271 -20.839844 0.000000 0.000000 -4.162317 4.503227 -7.909806 8.584577 -3.811294 0.287245 -4.754609 -0.109183 -0.002653 -79.584785 -0.448932 6.592773 -2.109370 -10.153532 20.605585 -0.867371 0.786314 -6.250481 4.754609 0.109183 -0.002672 90.905167 -15.532513 -13.788964 17.096075 0.778933 15.614979 6.226963 -2.577760 19.838242 8.033292 16.705009 11.054536 14.254817 -3.546066 -3.980131 -8.969729 -5.471329 -18.106855 11.089572 -15.972651 -10.386392 13.136673 0.729115 -4.392299 -10.792284 -8.420293 14.081142 
-0.090396 43.132092 -41.632801 3.174397 9.058576 102.689240 26.202730 -4.068222 -0.028841 -20.839844 0.000000 0.000000 -3.590502 5.069923 -9.535110 8.584577 -3.811294 0.287245 -4.754609 -0.109183 -0.002653 -81.330246 -2.162600 8.921389 -1.312254 -8.908779 23.365501 0.383471 1.256176 -4.327056 4.754609 0.109183 -0.002672 91.474396 -15.974911 -13.921990 18.981947 0.868443 18.538742 7.847246 -2.510866 24.103174 6.597876 17.075073 10.655803 15.450639 -3.622870 -4.714784 -9.859058 -5.416779 -17.986853 11.009678 -15.218392 -9.823750 12.373643 -0.071286 -5.066514 -9.939518 -9.319356 14.793567 
-0.204955 43.264362 -41.829845 2.597282 8.555785 102.466797 26.289707 -4.475123 -0.571780 -20.839844 0.000000 0.000000 -3.030469 6.583659 -11.058660 8.584577 -3.811294 0.287245 -4.754609 -0.109183 -0.002653 -80.101570 -3.123204 9.250546 -1.695789 -10.497611 26.536106 1.712365 1.894462 -0.488337 4.754609 0.109183 -0.002672 91.313629 -16.178596 -13.784197 21.938564 0.878371 21.760239 7.908620 -0.655329 28.434456 6.775237 17.595583 12.042405 14.145311 -4.257535 -4.173639 -9.333664 -6.792806 -18.614174 11.498302 -14.399061 -10.282297 9.328277 -0.881044 -6.056942 -7.290116 -8.060499 15.965837 
-0.417418 43.559612 -42.043873 1.588433 8.180492 101.066399 26.855944 -5.006338 -1.541103 -20.839844 0.000000 0.000000 -3.197100 9.102622 -11.737031 8.584577 -3.811294 0.287245 -4.754609 -0.109183 -0.002653 -77.504852 -4.117296 8.924851 -1.657981 -13.543226 29.356928 1.587263 2.320994 3.020242 4.754609 0.109183 -0.002672 91.161751 -17.915724 -13.900390 31.394018 1.813695 23.649925 8.591495 0.547785 29.727100 8.531322 18.227837 14.439580 10.461015 -5.310244 -2.599497 -7.464671 -8.448977 -19.135260 11.716936 -13.523771 -10.439542 5.523775 -1.447760 -6.429076 -1.951006 -5.812926 16.832146 
